<svg width="60" height="60" viewBox="0 0 60 60" fill="none" xmlns="http://www.w3.org/2000/svg">
<rect x="0.5" y="0.5" width="59" height="59" rx="29.5" fill="#F0FFFF"/>
<rect x="0.5" y="0.5" width="59" height="59" rx="29.5" stroke="#5FBF8D"/>
<g clip-path="url(#clip0_12045_1868)">
<path d="M43.7812 46.5938H38.4375C36.8842 46.5938 35.625 45.3345 35.625 43.7812C35.625 42.228 36.8842 40.9688 38.4375 40.9688H43.7812C45.3345 40.9688 46.5938 42.228 46.5938 43.7812C46.5938 45.3345 45.3345 46.5938 43.7812 46.5938Z" stroke="#DBE120" stroke-width="2.8125" stroke-miterlimit="10" stroke-linecap="round" stroke-linejoin="round"/>
<path d="M27.1875 35.3438H42.375C44.7049 35.3438 46.5938 33.4549 46.5938 31.125V17.625C46.5938 15.2951 44.7049 13.4062 42.375 13.4062H17.625C15.2951 13.4062 13.4062 15.2951 13.4062 17.625V31.125C13.4062 33.4549 15.2951 35.3438 17.625 35.3438H21.5625V39.5625C21.5625 41.8924 23.4513 43.7812 25.7812 43.7812H35.625" stroke="#5FBF8D" stroke-width="2.8125" stroke-miterlimit="10" stroke-linecap="round" stroke-linejoin="round"/>
<path d="M33.74 19.5092C31.3044 20.2675 28.6957 20.2675 26.2601 19.5092C25.0823 19.1424 23.8087 19.5996 23.1245 20.6259L20.6247 24.3755C19.6134 25.8926 20.2795 27.9808 22.002 28.5789C24.041 29.2869 26.8714 30 30 30C33.1286 30 35.959 29.2869 37.9981 28.5789C39.7205 27.9808 40.3867 25.8926 39.3753 24.3755L36.8756 20.6259C36.1913 19.5995 34.9177 19.1424 33.74 19.5092Z" stroke="#DBE120" stroke-width="2.8125" stroke-miterlimit="10" stroke-linecap="round" stroke-linejoin="round"/>
</g>
<defs>
<clipPath id="clip0_12045_1868">
<rect width="36" height="36" fill="white" transform="translate(12 12)"/>
</clipPath>
</defs>
</svg>
