<svg width="60" height="60" viewBox="0 0 60 60" fill="none" xmlns="http://www.w3.org/2000/svg">
<rect x="0.5" y="0.5" width="59" height="59" rx="29.5" fill="#F0FFFF"/>
<rect x="0.5" y="0.5" width="59" height="59" rx="29.5" stroke="#5FBF8D"/>
<path d="M32.8125 40.9688H44.0625M27.1875 27.4688C25.637 27.4688 24.375 28.7308 24.375 30.2812V33.2838" stroke="#DBE120" stroke-width="2.8125" stroke-miterlimit="10" stroke-linecap="round" stroke-linejoin="round"/>
<path d="M15.9375 40.9688V38.1562C15.9375 35.0496 18.4559 32.5312 21.5625 32.5312C24.6691 32.5312 27.1875 35.0496 27.1875 38.1562V40.9688H32.8125V43.7812C32.8125 45.3345 31.5533 46.5938 30 46.5938H18.75C17.1967 46.5938 15.9375 45.3345 15.9375 43.7812V40.9688Z" stroke="#5FBF8D" stroke-width="2.8125" stroke-miterlimit="10" stroke-linecap="round" stroke-linejoin="round"/>
<path d="M32.8125 13.4062H44.0625M18.75 33.2838V30.2812C18.75 25.6285 22.5348 21.8438 27.1875 21.8438H32.8125" stroke="#5FBF8D" stroke-width="2.8125" stroke-miterlimit="10" stroke-linecap="round" stroke-linejoin="round"/>
<path d="M35.625 19.0312C34.0717 19.0312 32.8125 20.2905 32.8125 21.8438V29.7188C32.8125 31.272 34.0717 32.5312 35.625 32.5312H41.25C42.8033 32.5312 44.0625 31.272 44.0625 29.7188V21.8438C44.0625 20.2905 42.8033 19.0312 41.25 19.0312M35.625 19.0312H41.25M35.625 19.0312V13.4062M41.25 19.0312V13.4062M38.4375 35.3438V32.5312" stroke="#5FBF8D" stroke-width="2.8125" stroke-miterlimit="10" stroke-linecap="round" stroke-linejoin="round"/>
</svg>
