<svg width="60" height="60" viewBox="0 0 60 60" fill="none" xmlns="http://www.w3.org/2000/svg">
<rect x="0.5" y="0.5" width="59" height="59" rx="29.5" fill="#F0FFFF"/>
<rect x="0.5" y="0.5" width="59" height="59" rx="29.5" stroke="#5FBF8D"/>
<path d="M23.8828 36.5391C23.8828 36.5391 22.9961 35.992 22.592 35.6778L22.594 35.6794C17.68 31.8591 13.4062 26.6069 13.4062 20.1378C13.4062 16.4201 16.3002 13.4062 19.8701 13.4062C23.4399 13.4062 25.5 15.2344 26.3339 18.1172C27.2578 15.2344 29.2279 13.4062 32.7977 13.4062C35.8144 13.4062 38.3484 15.5584 39.0613 18.4688M43.0781 41.6719H32.6719C30.7303 41.6719 29.1562 40.0979 29.1562 38.1562V33.2344C29.1562 31.2928 30.7303 29.7188 32.6719 29.7188H43.0781C45.0197 29.7188 46.5938 31.2928 46.5938 33.2344V38.1562C46.5938 40.0979 45.0197 41.6719 43.0781 41.6719Z" stroke="#5FBF8D" stroke-width="2.8125" stroke-miterlimit="10" stroke-linecap="round" stroke-linejoin="round"/>
<path d="M19.5938 24.6562C20.9455 24.6562 21.588 25.1725 21.9141 26.4844L22.3666 28.4108C22.6966 29.7382 24.3611 29.6631 24.5859 28.314L25.5302 23.6825C25.6763 22.3904 27.5362 22.3416 27.75 23.6243L28.1016 24.939C28.3264 26.2881 30.2377 26.3631 30.5677 25.0358L30.7031 24.6562C30.9266 23.9531 31.4891 23.3906 32.3328 23.3906H46.5938" stroke="#DBE120" stroke-width="2.8125" stroke-miterlimit="10" stroke-linecap="round" stroke-linejoin="round"/>
<path d="M41.6719 45.5938H37.875H34.0781" stroke="#DBE120" stroke-width="2.8125" stroke-miterlimit="10" stroke-linecap="round" stroke-linejoin="round"/>
</svg>
