<svg width="60" height="60" viewBox="0 0 60 60" fill="none" xmlns="http://www.w3.org/2000/svg">
<rect x="0.5" y="0.5" width="59" height="59" rx="29.5" fill="#F0FFFF"/>
<rect x="0.5" y="0.5" width="59" height="59" rx="29.5" stroke="#5FBF8D"/>
<g clip-path="url(#clip0_12045_1875)">
<path d="M24.375 33.2476V26.7524L30 23.5048L35.625 26.7524V33.2476L30 36.4952L24.375 33.2476Z" stroke="#5FBF8D" stroke-width="2.8125" stroke-miterlimit="10" stroke-linecap="round" stroke-linejoin="round"/>
<path d="M21.5625 20.9305C21.5625 22.4838 20.3033 23.743 18.75 23.743H16.2894M21.5625 39.0694C21.5625 37.5162 20.3033 36.2569 18.75 36.2569H16.2894" stroke="#DBE120" stroke-width="2.8125" stroke-miterlimit="10" stroke-linecap="round" stroke-linejoin="round"/>
<path d="M30 42.375C30 44.7049 31.8888 46.5938 34.2188 46.5938C36.0622 46.5938 37.613 45.4038 38.187 43.756C38.2718 43.7598 38.3516 43.7812 38.4375 43.7812C41.544 43.7812 44.0625 41.2628 44.0625 38.1562C44.0625 37.4862 43.9255 36.8528 43.7106 36.257C45.6256 34.7102 46.5938 32.6534 46.5938 30C46.5938 27.3466 45.6256 25.2898 43.7106 23.743C43.9255 23.1472 44.0625 22.5135 44.0625 21.8438C44.0625 18.737 41.544 16.2188 38.4375 16.2188C38.3516 16.2188 38.2718 16.2402 38.187 16.244C37.613 14.5962 36.0622 13.4062 34.2188 13.4062C31.8888 13.4062 30 15.2951 30 17.625C30 15.2951 28.1112 13.4062 25.7812 13.4062C23.9378 13.4062 22.387 14.5962 21.813 16.244C21.7282 16.2402 21.6484 16.2188 21.5625 16.2188C18.456 16.2188 15.9375 18.737 15.9375 21.8438C15.9375 22.5135 16.0745 23.1472 16.2894 23.743C14.3744 25.2898 13.4062 27.3466 13.4062 30C13.4062 32.6534 14.3744 34.7102 16.2894 36.257C16.0745 36.8528 15.9375 37.4862 15.9375 38.1562C15.9375 41.2628 18.456 43.7812 21.5625 43.7812C21.6484 43.7812 21.7282 43.7598 21.813 43.756C22.387 45.4038 23.9378 46.5938 25.7812 46.5938C28.1112 46.5938 30 44.7049 30 42.375Z" stroke="#5FBF8D" stroke-width="2.8125" stroke-miterlimit="10" stroke-linecap="round" stroke-linejoin="round"/>
<path d="M38.4375 20.9305C38.4375 22.4838 39.6967 23.743 41.25 23.743H43.7106M38.4375 39.0694C38.4375 37.5162 39.6967 36.2569 41.25 36.2569H43.7106" stroke="#DBE120" stroke-width="2.8125" stroke-miterlimit="10" stroke-linecap="round" stroke-linejoin="round"/>
</g>
<defs>
<clipPath id="clip0_12045_1875">
<rect width="36" height="36" fill="white" transform="translate(12 12)"/>
</clipPath>
</defs>
</svg>
