<svg width="60" height="60" viewBox="0 0 60 60" fill="none" xmlns="http://www.w3.org/2000/svg">
<rect x="0.5" y="0.5" width="59" height="59" rx="29.5" fill="#F0FFFF"/>
<rect x="0.5" y="0.5" width="59" height="59" rx="29.5" stroke="#5FBF8D"/>
<g clip-path="url(#clip0_12045_1871)">
<path d="M17.625 27.1875C17.625 29.5532 20.0958 31.4062 23.25 31.4062C26.4042 31.4062 28.875 29.5532 28.875 27.1875C28.875 24.8218 26.4042 22.9688 23.25 22.9688C20.0958 22.9688 17.625 24.8218 17.625 27.1875ZM26.0625 27.1875C26.0625 27.7609 24.9668 28.5938 23.25 28.5938C21.5332 28.5938 20.4375 27.7609 20.4375 27.1875C20.4375 26.6141 21.5332 25.7812 23.25 25.7812C24.9668 25.7812 26.0625 26.6141 26.0625 27.1875ZM36.75 22.9688C33.5958 22.9688 31.125 24.8218 31.125 27.1875C31.125 29.5532 33.5958 31.4062 36.75 31.4062C39.9042 31.4062 42.375 29.5532 42.375 27.1875C42.375 24.8218 39.9042 22.9688 36.75 22.9688ZM36.75 28.5938C35.0332 28.5938 33.9375 27.7609 33.9375 27.1875C33.9375 26.6141 35.0332 25.7812 36.75 25.7812C38.4668 25.7812 39.5625 26.6141 39.5625 27.1875C39.5625 27.7609 38.4668 28.5938 36.75 28.5938ZM30 34.2188C26.8458 34.2188 24.375 36.0718 24.375 38.4375C24.375 40.8032 26.8458 42.6562 30 42.6562C33.1542 42.6562 35.625 40.8032 35.625 38.4375C35.625 36.0718 33.1542 34.2188 30 34.2188ZM30 39.8438C28.2832 39.8438 27.1875 39.0109 27.1875 38.4375C27.1875 37.8641 28.2832 37.0312 30 37.0312C31.7168 37.0312 32.8125 37.8641 32.8125 38.4375C32.8125 39.0109 31.7168 39.8438 30 39.8438Z" fill="#DBE120"/>
<path d="M30 12C19.7853 12 12 17.1462 12 27.1875C12 32.1204 13.8644 37.2534 17.1151 41.2702C20.3633 45.284 24.8969 48 30 48C35.1033 48 39.6368 45.2838 42.8849 41.2702C46.1356 37.2534 48 32.1204 48 27.1875C48 17.1391 40.2067 12 30 12ZM40.6987 39.5009C37.731 43.168 33.9315 45.1875 30 45.1875C26.0685 45.1875 22.269 43.168 19.3013 39.5009C16.4906 36.0278 14.8125 31.4246 14.8125 27.1875C14.8125 22.6065 16.7973 19.1172 20.3847 17.0297L23.3806 20.0256C23.9298 20.5747 24.8201 20.5748 25.3694 20.0256C25.9186 19.4764 25.9186 18.586 25.3694 18.0369L23.1388 15.8063C25.119 15.1543 27.4178 14.8125 30 14.8125C32.5822 14.8125 34.881 15.1543 36.8612 15.8063L34.6306 18.0369C34.0814 18.5861 34.0814 19.4765 34.6306 20.0256C35.1798 20.5747 36.0701 20.5748 36.6194 20.0256L39.6153 17.0297C43.2027 19.1172 45.1875 22.6065 45.1875 27.1875C45.1875 31.4246 43.5094 36.0278 40.6987 39.5009Z" fill="#5FBF8D"/>
</g>
<defs>
<clipPath id="clip0_12045_1871">
<rect width="36" height="36" fill="white" transform="translate(12 12)"/>
</clipPath>
</defs>
</svg>
