<svg width="60" height="60" viewBox="0 0 60 60" fill="none" xmlns="http://www.w3.org/2000/svg">
<rect x="0.5" y="0.5" width="59" height="59" rx="29.5" fill="#F0FFFF"/>
<rect x="0.5" y="0.5" width="59" height="59" rx="29.5" stroke="#5FBF8D"/>
<path d="M27.1875 32.8125C28.2729 32.8125 29.2524 33.234 30 33.9073C30.7476 33.234 31.7271 32.8125 32.8125 32.8125C35.1424 32.8125 37.0312 34.7013 37.0312 37.0312C37.0312 38.8654 35.8535 40.4108 34.2188 40.9918V43.7812C34.2188 45.3345 32.9596 46.5938 31.4062 46.5938H28.5938C27.0404 46.5938 25.7812 45.3345 25.7812 43.7812V40.9918C24.1465 40.4108 22.9688 38.8654 22.9688 37.0312C22.9688 34.7013 24.8576 32.8125 27.1875 32.8125ZM27.1875 32.8125H25.7812C24.228 32.8125 22.9688 31.5533 22.9688 30C22.9688 28.4467 24.228 27.1875 25.7812 27.1875H27.1875" stroke="#5FBF8D" stroke-width="2.8125" stroke-miterlimit="10" stroke-linecap="round" stroke-linejoin="round"/>
<path d="M36.9199 22.0058C36.5902 20.6071 35.5579 19.4842 34.2188 19.0082V16.2188C34.2188 14.6655 32.9596 13.4062 31.4062 13.4062H28.5938C27.0404 13.4062 25.7812 14.6655 25.7812 16.2188V19.0082C24.1465 19.5892 22.9688 21.1346 22.9688 22.9688C22.9688 25.2987 24.8576 27.1875 27.1875 27.1875C28.2729 27.1875 29.2524 26.766 30 26.0927C30.7476 26.766 31.7271 27.1875 32.8125 27.1875H34.2188C35.772 27.1875 37.0312 28.4467 37.0312 30C37.0312 31.5533 35.772 32.8125 34.2188 32.8125H32.8125" stroke="#5FBF8D" stroke-width="2.8125" stroke-miterlimit="10" stroke-linecap="round" stroke-linejoin="round"/>
<path d="M17.3438 27.1875L14.5312 25.7812M17.3438 32.8125L14.5312 34.2188M42.6562 27.1875L45.4688 25.7812M42.6562 32.8125L45.4688 34.2188" stroke="#DBE120" stroke-width="2.8125" stroke-miterlimit="10" stroke-linecap="round" stroke-linejoin="round"/>
</svg>
