<svg width="60" height="60" viewBox="0 0 60 60" fill="none" xmlns="http://www.w3.org/2000/svg">
<rect x="0.5" y="0.5" width="59" height="59" rx="29.5" fill="#F0FFFF"/>
<rect x="0.5" y="0.5" width="59" height="59" rx="29.5" stroke="#5FBF8D"/>
<path d="M30.0007 12C27.6745 12 25.7819 13.8925 25.7819 16.2188V32.5312C25.7819 33.3067 25.1511 33.9375 24.3757 33.9375C18.9478 33.9375 14.5319 38.3534 14.5319 43.7812C14.5319 46.1075 16.4245 48 18.7507 48C21.0769 48 22.9694 46.1075 22.9694 43.7812C22.9694 43.0058 23.6003 42.375 24.3757 42.375H32.323C38.8089 42.375 44.5511 38.0163 45.363 31.6602C46.2079 25.0449 41.8688 19.2248 35.3829 17.8863C34.6978 17.7449 34.2194 17.1843 34.2194 16.5228V16.2188C34.2194 13.8925 32.3268 12 30.0007 12ZM34.8145 20.6408C39.9637 21.7034 43.2267 26.1879 42.5732 31.3039C41.962 36.0893 37.6511 39.5626 32.3229 39.5625H24.3757C22.0495 39.5625 20.1569 41.455 20.1569 43.7812C20.1569 44.5567 19.5261 45.1875 18.7507 45.1875C17.9753 45.1875 17.3444 44.5567 17.3444 43.7812C17.3444 39.9042 20.4986 36.75 24.3757 36.75C26.7019 36.75 28.5944 34.8575 28.5944 32.5312V16.2188C28.5944 15.4433 29.2253 14.8125 30.0007 14.8125C30.7761 14.8125 31.4069 15.4433 31.4069 16.2188V16.5229C31.4069 18.5334 32.8082 20.2268 34.8145 20.6408Z" fill="#5FBF8D"/>
<path d="M32.8129 25.7812C33.5896 25.7812 34.2192 25.1517 34.2192 24.375C34.2192 23.5983 33.5896 22.9688 32.8129 22.9688C32.0363 22.9688 31.4067 23.5983 31.4067 24.375C31.4067 25.1517 32.0363 25.7812 32.8129 25.7812Z" fill="#DBE120"/>
<path d="M35.6254 27.1875C33.2992 27.1875 31.4067 29.08 31.4067 31.4062C31.4067 33.7325 33.2992 35.625 35.6254 35.625C37.9516 35.625 39.8442 33.7325 39.8442 31.4062C39.8442 29.08 37.9516 27.1875 35.6254 27.1875ZM35.6254 32.8125C34.85 32.8125 34.2192 32.1817 34.2192 31.4062C34.2192 30.6308 34.85 30 35.6254 30C36.4008 30 37.0317 30.6308 37.0317 31.4062C37.0317 32.1817 36.4008 32.8125 35.6254 32.8125Z" fill="#DBE120"/>
</svg>
