<svg width="60" height="60" viewBox="0 0 60 60" fill="none" xmlns="http://www.w3.org/2000/svg">
<rect x="0.5" y="0.5" width="59" height="59" rx="29.5" fill="#F0FFFF"/>
<rect x="0.5" y="0.5" width="59" height="59" rx="29.5" stroke="#5FBF8D"/>
<path d="M38.0211 44.5629C35.6341 45.8579 32.9014 46.5938 30 46.5938C20.6946 46.5938 13.4062 39.3054 13.4062 30C13.4062 20.6946 20.6946 13.4062 30 13.4062C34.6527 13.4062 38.8715 15.2986 41.927 18.3542L41.9325 14.3714" stroke="#5FBF8D" stroke-width="2.8125" stroke-miterlimit="10" stroke-linecap="round" stroke-linejoin="round"/>
<path d="M35.625 20.255C38.9876 22.2002 41.25 25.8359 41.25 30M41.25 30C41.25 36.2132 36.2132 41.25 30 41.25M41.25 30H38.4375M30 41.25C23.7868 41.25 18.75 36.2132 18.75 30M30 41.25V38.4375M18.75 30C18.75 23.7868 23.7868 18.75 30 18.75V21.5625M18.75 30H21.5625" stroke="#DBE120" stroke-width="2.8125" stroke-miterlimit="10" stroke-linecap="round" stroke-linejoin="round"/>
<path d="M30 27.1875V30H32.8125" stroke="#DBE120" stroke-width="2.8125" stroke-miterlimit="10" stroke-linecap="round" stroke-linejoin="round"/>
</svg>
