<svg width="60" height="60" viewBox="0 0 60 60" fill="none" xmlns="http://www.w3.org/2000/svg">
<rect x="0.5" y="0.5" width="59" height="59" rx="29.5" fill="#F0FFFF"/>
<rect x="0.5" y="0.5" width="59" height="59" rx="29.5" stroke="#5FBF8D"/>
<path d="M27.1172 20.4375H23.1488C22.3721 20.4375 21.7425 19.8079 21.7425 19.0312C21.7425 19.0312 21.7379 17.772 21.7379 16.2188C21.7379 14.6655 22.9971 13.4062 24.5504 13.4062H35.0269C36.5802 13.4062 37.8394 14.6655 37.8394 16.2188C37.8394 17.772 37.8441 19.0312 37.8441 19.0312C37.8441 19.8079 37.2145 20.4375 36.4378 20.4375H32.8477M35.0973 46.5938H37.066M42.3394 46.5938C42.3394 42.1549 39.8706 38.2337 36.1656 36.354C35.4612 35.9967 34.8863 36.2151 34.8863 37.0049V36.9993C34.8863 39.6328 29.9246 42.0234 29.9246 42.0234H29.9339C29.9339 42.0234 25.0426 39.6328 25.0426 36.9992V37.0048C25.0426 36.215 24.4677 35.9965 23.7633 36.3539C20.8438 37.8654 18.4803 40.7205 17.7166 44.0026C17.4085 45.3269 18.4112 46.5938 19.7707 46.5938H29.9644M29.9649 23.25C31.5181 23.25 32.7774 21.9908 32.7774 20.4375C32.7774 18.8842 31.5181 17.625 29.9649 17.625C28.4116 17.625 27.1524 18.8842 27.1524 20.4375C27.1524 21.9908 28.4116 23.25 29.9649 23.25Z" stroke="#5FBF8D" stroke-width="2.8125" stroke-miterlimit="10" stroke-linecap="round" stroke-linejoin="round"/>
<path d="M21.7897 25.1484C22.4553 28.9438 25.7674 31.8281 29.7535 31.8281C33.7396 31.8281 37.0516 28.9438 37.7173 25.1484" stroke="#DBE120" stroke-width="2.8125" stroke-miterlimit="10" stroke-linecap="round" stroke-linejoin="round"/>
</svg>
