<svg width="60" height="60" viewBox="0 0 60 60" fill="none" xmlns="http://www.w3.org/2000/svg">
<rect x="0.5" y="0.5" width="59" height="59" rx="29.5" fill="#F0FFFF"/>
<rect x="0.5" y="0.5" width="59" height="59" rx="29.5" stroke="#5FBF8D"/>
<path d="M26.5118 17.6753L25.5498 15.0324C25.2843 14.3025 24.4771 13.9263 23.7475 14.1918C23.0176 14.4575 22.6414 15.2645 22.9069 15.9942L23.8689 18.6371C24.1341 19.3659 24.9403 19.7437 25.6713 19.4777C26.4011 19.212 26.7774 18.405 26.5118 17.6753ZM36.2525 14.1918C35.5226 13.9262 34.7159 14.3026 34.4501 15.0324L33.4882 17.6753C33.2226 18.405 33.5989 19.212 34.3287 19.4777C35.0599 19.7438 35.866 19.3656 36.1311 18.6371L37.0931 15.9942C37.3586 15.2645 36.9824 14.4575 36.2525 14.1918ZM30 18.7144C30.7767 18.7144 31.4062 18.0848 31.4062 17.3082V14.4957C31.4062 13.719 30.7767 13.0894 30 13.0894C29.2233 13.0894 28.5937 13.719 28.5937 14.4957V17.3082C28.5937 18.0848 29.2233 18.7144 30 18.7144Z" fill="#DBE120"/>
<path d="M43.7812 24.3394H40.407C39.5533 24.3394 38.688 23.9438 37.8351 23.1635C35.3555 20.895 31.5504 20.9807 29.1724 23.3586L24.0532 28.4777C22.4084 30.1226 22.4084 32.799 24.0532 34.444C25.7019 36.0926 28.3706 36.0929 30.0195 34.444L33.7727 30.6908C34.3218 30.1416 34.3218 29.2512 33.7727 28.7021C33.2235 28.1529 32.333 28.1529 31.7839 28.7021L28.0308 32.4552C27.4812 33.0048 26.5917 33.0048 26.0421 32.4552C25.4937 31.9069 25.4937 31.0148 26.0421 30.4665L31.1612 25.3474C32.4723 24.0362 34.57 23.9883 35.9368 25.2387C37.3049 26.4903 38.8507 27.1519 40.4071 27.1519H43.7813C44.5567 27.1519 45.1876 27.7828 45.1876 28.5582V36.9957C45.1876 37.7711 44.5567 38.4019 43.7813 38.4019H39.7025C40.367 36.8607 40.0718 35.0013 38.8147 33.7441L37.7498 32.6791C37.2006 32.13 36.3102 32.13 35.7611 32.6791C35.2119 33.2283 35.2119 34.1187 35.7611 34.6679L36.8261 35.7328C37.3744 36.2811 37.3744 37.1733 36.8261 37.7216L35.7342 38.8135L35.7336 38.814L30.8598 43.6877C30.5942 43.9533 30.241 44.0996 29.8654 44.0996C29.4898 44.0996 29.1367 43.9533 28.8711 43.6877L25.6445 40.4612C24.3165 39.1332 22.5508 38.4018 20.6727 38.4018H16.2188C15.4433 38.4018 14.8125 37.7709 14.8125 36.9955V28.558C14.8125 27.7826 15.4433 27.1518 16.2188 27.1518H18.084C19.7751 27.1518 21.3904 26.5197 22.6326 25.3721C23.3508 24.7071 24.2938 24.3382 25.2725 24.3393C26.0492 24.3393 26.6788 23.7097 26.6788 22.933C26.6788 22.1564 26.0492 21.5268 25.2725 21.5268C23.5814 21.5268 21.966 22.1588 20.724 23.3064C20.0058 23.9714 19.0628 24.3403 18.084 24.3393H16.2188C13.8925 24.3393 12 26.2318 12 28.558V36.9955C12 39.3218 13.8925 41.2143 16.2188 41.2143H20.6727C21.7995 41.2143 22.859 41.6531 23.6558 42.45L26.8823 45.6765C27.7047 46.4989 28.7851 46.9101 29.8654 46.9101C30.9458 46.9101 32.0261 46.4989 32.8485 45.6765L37.3107 41.2144H43.7812C46.1075 41.2144 48 39.3218 48 36.9956V28.5581C48 26.232 46.1075 24.3394 43.7812 24.3394Z" fill="#5FBF8D"/>
</svg>
