<svg width="60" height="60" viewBox="0 0 60 60" fill="none" xmlns="http://www.w3.org/2000/svg">
<rect x="0.5" y="0.5" width="59" height="59" rx="29.5" fill="#F0FFFF"/>
<rect x="0.5" y="0.5" width="59" height="59" rx="29.5" stroke="#5FBF8D"/>
<path d="M40.9688 36.094V39.8438C40.9688 41.397 39.7095 42.6563 38.1562 42.6563H21.8438C20.2905 42.6563 19.0312 41.397 19.0312 39.8438V30.0011" stroke="#5FBF8D" stroke-width="2.8125" stroke-miterlimit="10" stroke-linecap="round" stroke-linejoin="round"/>
<path d="M46.5938 39.8438V33.7439" stroke="#DBE120" stroke-width="2.8125" stroke-miterlimit="10" stroke-linecap="round" stroke-linejoin="round"/>
<path d="M27.8378 17.7744L15.1377 23.1841C14.121 23.6078 13.4062 24.6111 13.4062 25.7813C13.4062 26.9515 14.121 27.9548 15.1377 28.3785L27.8378 33.7882C28.5035 34.0656 29.2339 34.2188 30 34.2188C30.7661 34.2188 31.4965 34.0656 32.1622 33.7882L44.8623 28.3785C45.879 27.9548 46.5938 26.9515 46.5938 25.7813C46.5938 24.6111 45.879 23.6078 44.8623 23.1841L32.1622 17.7744C31.4965 17.4969 30.7661 17.3438 30 17.3438C29.2339 17.3438 28.5035 17.4969 27.8378 17.7744Z" stroke="#5FBF8D" stroke-width="2.8125" stroke-miterlimit="10" stroke-linecap="round" stroke-linejoin="round"/>
</svg>
