<svg width="60" height="60" viewBox="0 0 60 60" fill="none" xmlns="http://www.w3.org/2000/svg">
<rect x="0.5" y="0.5" width="59" height="59" rx="29.5" fill="#F0FFFF"/>
<rect x="0.5" y="0.5" width="59" height="59" rx="29.5" stroke="#5FBF8D"/>
<g clip-path="url(#clip0_14072_6235)">
<path d="M23.25 21.8438C23.25 20.2905 24.5092 19.0312 26.0625 19.0312C27.6158 19.0312 28.875 20.2905 28.875 21.8438C28.875 22.9249 28.265 23.8636 27.3702 24.3344C26.5189 24.7823 26.0625 25.7394 26.0625 26.7014V27.4688" stroke="#DBE120" stroke-width="2.8125" stroke-miterlimit="10" stroke-linecap="round" stroke-linejoin="round"/>
<path d="M43.7213 26.9877C45.4964 28.7681 46.5938 31.2247 46.5938 33.9375V46.5938C46.5938 45.0405 45.3345 43.7812 43.7812 43.7812H36.75C35.0389 43.7812 33.4297 43.3447 32.0278 42.5768M13.4062 41.5312C13.4062 39.978 14.6655 38.7188 16.2188 38.7188H26.0625C33.0523 38.7188 38.7188 33.0523 38.7188 26.0625C38.7188 19.0727 33.0523 13.4062 26.0625 13.4062C19.0727 13.4062 13.4062 19.0727 13.4062 26.0625V41.5312Z" stroke="#5FBF8D" stroke-width="2.8125" stroke-miterlimit="10" stroke-linecap="round" stroke-linejoin="round"/>
</g>
<defs>
<clipPath id="clip0_14072_6235">
<rect width="36" height="36" fill="white" transform="translate(12 12)"/>
</clipPath>
</defs>
</svg>
