<svg width="60" height="60" viewBox="0 0 60 60" fill="none" xmlns="http://www.w3.org/2000/svg">
<rect x="0.5" y="0.5" width="59" height="59" rx="29.5" fill="#F0FFFF"/>
<rect x="0.5" y="0.5" width="59" height="59" rx="29.5" stroke="#5FBF8D"/>
<g clip-path="url(#clip0_14072_6931)">
<path d="M24.9512 25.7812C24.9512 24.2279 26.2104 22.9687 27.7637 22.9687C29.3169 22.9687 30.5762 24.2279 30.5762 25.7812C30.5762 26.8624 29.9661 27.8011 29.0714 28.2718C28.2201 28.7198 27.7637 29.6769 27.7637 30.6389V31.4062" stroke="#DBE120" stroke-width="2.81251" stroke-miterlimit="10" stroke-linecap="round" stroke-linejoin="round"/>
<path d="M24.9511 46.5937H22.1386C20.5854 46.5937 19.3261 45.3345 19.3261 43.7812V42.4592C19.3261 40.6108 18.425 38.1621 17.2116 36.7678C14.4918 33.6429 13.0833 29.345 13.9615 24.7425C15.0058 19.2692 19.3822 14.801 24.8447 13.7006C33.8827 11.88 41.8261 18.7523 41.8261 27.4687L45.4708 31.1134C47.2395 32.882 45.9869 35.9062 43.4856 35.9062H41.8261V38.1562C41.8261 41.2499 39.2949 43.7812 36.2011 43.7812H33.3886C31.8418 43.7812 30.5761 45.0468 30.5761 46.5937" stroke="#5FBF8D" stroke-width="2.81251" stroke-miterlimit="10" stroke-linecap="round" stroke-linejoin="round"/>
</g>
<defs>
<clipPath id="clip0_14072_6931">
<rect width="36" height="36" fill="white" transform="translate(12 12)"/>
</clipPath>
</defs>
</svg>
