<svg width="60" height="60" viewBox="0 0 60 60" fill="none" xmlns="http://www.w3.org/2000/svg">
<rect x="0.5" y="0.5" width="59" height="59" rx="29.5" fill="#F0FFFF"/>
<rect x="0.5" y="0.5" width="59" height="59" rx="29.5" stroke="#5FBF8D"/>
<path d="M25.1988 28.1365L22.2157 25.1535C21.1174 24.0552 21.1174 22.2742 22.2157 21.1759C23.314 20.0777 25.0949 20.0777 26.1932 21.1759L27.1875 22.1704L28.1819 21.176C29.2801 20.0777 31.0611 20.0777 32.1594 21.176C33.2577 22.2743 33.2577 24.0552 32.1594 25.1535L29.1763 28.1366C28.0779 29.2348 26.2971 29.2348 25.1988 28.1365Z" stroke="#DBE120" stroke-width="2.8125" stroke-miterlimit="10" stroke-linecap="round" stroke-linejoin="round"/>
<path d="M27.1875 35.3438H38.4375M27.1875 40.9688H38.4375M44.0625 26.0625V42.375C44.0625 44.7049 42.1737 46.5938 39.8438 46.5938H20.1562C17.8263 46.5938 15.9375 44.7049 15.9375 42.375V17.625C15.9375 15.2951 17.8263 13.4063 20.1562 13.4063H37.2725C37.6418 13.4062 38.0076 13.479 38.3488 13.6203C38.69 13.7617 39.0001 13.9689 39.2612 14.23L43.2387 18.2075C43.7662 18.7349 44.0625 19.4503 44.0625 20.1962V20.4375H39.8438C38.2905 20.4375 37.0312 19.1783 37.0312 17.625V13.4063" stroke="#5FBF8D" stroke-width="2.8125" stroke-miterlimit="10" stroke-linecap="round" stroke-linejoin="round"/>
</svg>
