<svg width="40" height="40" viewBox="0 0 40 40" fill="none" xmlns="http://www.w3.org/2000/svg">
<g clip-path="url(#clip0_14065_3462)">
<path d="M20 40C8.956 40 0 31.044 0 20C0 8.956 8.956 0 20 0C31.044 0 40 8.956 40 20C40 31.044 31.044 40 20 40Z" fill="url(#paint0_linear_14065_3462)"/>
<path d="M19.656 8.46C23.3 8.46 23.732 8.472 25.172 8.54C26.504 8.6 27.228 8.824 27.708 9.012C28.344 9.26 28.8 9.556 29.276 10.032C29.752 10.508 30.048 10.964 30.296 11.6C30.484 12.08 30.704 12.804 30.768 14.136C30.832 15.576 30.848 16.008 30.848 19.652C30.848 23.296 30.836 23.728 30.768 25.168C30.708 26.5 30.484 27.224 30.296 27.704C30.048 28.34 29.752 28.796 29.276 29.272C28.8 29.748 28.344 30.044 27.708 30.292C27.228 30.48 26.504 30.7 25.172 30.764C23.732 30.828 23.3 30.844 19.656 30.844C16.012 30.844 15.58 30.832 14.14 30.764C12.808 30.704 12.084 30.48 11.604 30.292C10.968 30.044 10.512 29.748 10.036 29.272C9.56 28.796 9.264 28.34 9.016 27.704C8.828 27.224 8.608 26.5 8.544 25.168C8.48 23.728 8.464 23.296 8.464 19.652C8.464 16.008 8.476 15.576 8.544 14.136C8.604 12.804 8.828 12.08 9.016 11.6C9.264 10.964 9.56 10.508 10.036 10.032C10.512 9.556 10.968 9.26 11.604 9.012C12.084 8.824 12.808 8.604 14.14 8.54C15.58 8.472 16.012 8.46 19.656 8.46ZM19.656 6C15.948 6 15.484 6.016 14.028 6.084C12.576 6.152 11.584 6.38 10.712 6.72C9.816 7.064 9.052 7.532 8.296 8.292C7.536 9.052 7.072 9.812 6.72 10.712C6.384 11.58 6.152 12.572 6.084 14.028C6.016 15.484 6 15.948 6 19.656C6 23.364 6.016 23.828 6.084 25.284C6.152 26.736 6.38 27.728 6.72 28.6C7.068 29.492 7.536 30.256 8.296 31.012C9.056 31.772 9.816 32.236 10.716 32.588C11.584 32.924 12.576 33.156 14.032 33.224C15.488 33.292 15.952 33.308 19.66 33.308C23.368 33.308 23.832 33.292 25.288 33.224C26.74 33.156 27.732 32.928 28.604 32.588C29.496 32.24 30.26 31.772 31.016 31.012C31.776 30.252 32.24 29.492 32.592 28.592C32.928 27.724 33.16 26.732 33.228 25.276C33.296 23.82 33.312 23.356 33.312 19.648C33.312 15.94 33.296 15.476 33.228 14.02C33.16 12.568 32.932 11.576 32.592 10.704C32.244 9.812 31.776 9.048 31.016 8.292C30.256 7.532 29.496 7.068 28.596 6.716C27.728 6.38 26.736 6.148 25.28 6.08C23.828 6.016 23.364 6 19.656 6Z" fill="white"/>
<path d="M19.656 12.64C15.784 12.64 12.644 15.78 12.644 19.652C12.644 23.524 15.784 26.664 19.656 26.664C23.528 26.664 26.668 23.524 26.668 19.652C26.668 15.78 23.528 12.64 19.656 12.64ZM19.656 24.204C17.144 24.204 15.104 22.168 15.104 19.652C15.104 17.136 17.144 15.1 19.656 15.1C22.168 15.1 24.208 17.136 24.208 19.652C24.208 22.168 22.168 24.204 19.656 24.204Z" fill="white"/>
<path d="M26.944 14.004C27.8497 14.004 28.584 13.2697 28.584 12.364C28.584 11.4583 27.8497 10.724 26.944 10.724C26.0382 10.724 25.304 11.4583 25.304 12.364C25.304 13.2697 26.0382 14.004 26.944 14.004Z" fill="white"/>
</g>
<defs>
<linearGradient id="paint0_linear_14065_3462" x1="5.85788" y1="34.1422" x2="34.1422" y2="5.85788" gradientUnits="userSpaceOnUse">
<stop stop-color="#FFD521"/>
<stop offset="0.055" stop-color="#FFD020"/>
<stop offset="0.124" stop-color="#FEC01E"/>
<stop offset="0.2" stop-color="#FCA71B"/>
<stop offset="0.282" stop-color="#FA8316"/>
<stop offset="0.368" stop-color="#F85510"/>
<stop offset="0.456" stop-color="#F51E09"/>
<stop offset="0.5" stop-color="#F30005"/>
<stop offset="0.503" stop-color="#F20007"/>
<stop offset="0.597" stop-color="#E1003B"/>
<stop offset="0.688" stop-color="#D30067"/>
<stop offset="0.776" stop-color="#C70088"/>
<stop offset="0.859" stop-color="#BF00A0"/>
<stop offset="0.936" stop-color="#BB00AF"/>
<stop offset="1" stop-color="#B900B4"/>
</linearGradient>
<clipPath id="clip0_14065_3462">
<rect width="40" height="40" rx="20" fill="white"/>
</clipPath>
</defs>
</svg>
