<svg width="40" height="40" viewBox="0 0 40 40" fill="none" xmlns="http://www.w3.org/2000/svg">
<rect x="0.5" y="0.5" width="39" height="39" rx="19.5" fill="#F0FFFF"/>
<rect x="0.5" y="0.5" width="39" height="39" rx="19.5" stroke="#5FBF8D"/>
<g clip-path="url(#clip0_12002_41)">
<path d="M23.1671 32.9998C22.5131 32.9998 21.8448 32.9385 21.1643 32.815C18.1681 32.2712 15.0345 30.5012 12.3408 27.831C9.6264 25.1404 7.80655 22.0027 7.21656 18.9959C6.5284 15.4891 7.48758 12.291 9.99042 9.74732C10.2957 9.4371 10.6155 9.14157 10.9489 8.86175C11.6495 8.27396 12.5372 7.97081 13.448 8.00811C14.3623 8.04555 15.2221 8.423 15.8688 9.07083C15.873 9.07503 15.8772 9.07933 15.8813 9.08362L17.5331 10.8C18.3749 11.6478 18.7359 12.8528 18.4988 14.0255C18.2619 15.1971 17.4611 16.1656 16.3567 16.616C15.6352 16.9103 15.175 17.1716 15.052 17.26C14.1425 18.1868 13.5635 19.6926 16.9655 23.1006C18.0695 24.2065 19.7045 25.6766 21.1522 25.6766C21.7395 25.6766 22.2786 25.4281 22.799 24.9172C22.8667 24.8179 23.1006 24.4195 23.4022 23.6679C23.8502 22.552 24.8202 21.7424 25.9969 21.5021C27.1691 21.2628 28.3739 21.6242 29.2215 22.4691L30.918 24.1109C30.922 24.1148 30.926 24.1187 30.93 24.1227C31.5741 24.7679 31.951 25.6253 31.9912 26.5368C32.0321 27.4457 31.7313 28.3369 31.1479 29.0351C30.8872 29.3474 30.6127 29.6481 30.3253 29.9361C28.305 31.9598 25.8593 32.9998 23.1671 32.9998ZM13.2991 9.95518C12.9131 9.95518 12.5249 10.0884 12.2039 10.3577C11.9182 10.5975 11.644 10.8508 11.3823 11.1168C9.32321 13.2095 8.56632 15.7339 9.13263 18.6199C9.64818 21.2471 11.2757 24.0258 13.7154 26.4442C16.1318 28.8395 18.9009 30.4196 21.5129 30.8936C24.3764 31.4133 26.8763 30.627 28.9434 28.5564C29.1898 28.3095 29.425 28.0518 29.6485 27.7841C30.2121 27.1086 30.1707 26.1312 29.5534 25.5074L27.8579 23.8666C27.8538 23.8627 27.8498 23.8587 27.8459 23.8548C27.4573 23.4655 26.9256 23.3053 26.3875 23.4152C25.8477 23.5254 25.4201 23.8826 25.2144 24.3952C25.0779 24.7352 24.6021 25.875 24.2096 26.2681C23.308 27.1712 22.2794 27.6291 21.1522 27.6291C19.0029 27.6291 17.0473 25.9462 15.5836 24.48C14.7044 23.5993 13.4621 22.2551 12.8259 20.7554C12.0411 18.9054 12.3413 17.2111 13.6942 15.856C14.1051 15.4444 15.2715 14.9497 15.6192 14.8079C16.1243 14.6019 16.4764 14.1756 16.585 13.6383C16.6944 13.097 16.5339 12.5628 16.1445 12.1728C16.1403 12.1686 16.1361 12.1643 16.132 12.16L14.4813 10.4446C14.1538 10.1197 13.7279 9.95518 13.2991 9.95518Z" fill="#5FBF8D"/>
<path d="M31.0224 19.6721C30.5228 19.6721 30.0969 19.2906 30.0512 18.7834C29.628 14.0874 25.9125 10.3719 21.2165 9.94874C20.6795 9.90037 20.2834 9.42578 20.3318 8.88875C20.3801 8.35168 20.8551 7.95554 21.3918 8.00401C24.1109 8.24907 26.6751 9.45077 28.6122 11.3878C30.5492 13.3248 31.7509 15.8891 31.9959 18.6082C32.0443 19.1452 31.6482 19.6198 31.1112 19.6681C31.0814 19.6708 31.0518 19.6721 31.0224 19.6721ZM23.4159 19.6707C23.9274 19.5 24.2037 18.9471 24.0331 18.4355C23.6501 17.2877 22.7516 16.3656 21.6296 15.969C21.1213 15.7893 20.5634 16.0558 20.3837 16.5642C20.204 17.0725 20.4705 17.6304 20.9788 17.8101C21.5376 18.0076 21.9869 18.4724 22.1808 19.0535C22.3173 19.4625 22.6981 19.7211 23.1068 19.7211C23.2119 19.7211 23.3163 19.7041 23.4159 19.6707ZM27.2515 19.6622C27.7853 19.5859 28.1561 19.0913 28.0798 18.5575C27.5907 15.1386 24.8613 12.4092 21.4424 11.9201C20.9092 11.8439 20.414 12.2145 20.3377 12.7484C20.2614 13.2821 20.6321 13.7767 21.1659 13.8531C23.7316 14.2201 25.7798 16.2684 26.1467 18.834C26.2164 19.3209 26.634 19.6721 27.112 19.6721C27.1587 19.6722 27.2053 19.6689 27.2515 19.6622Z" fill="#DBE120"/>
</g>
<defs>
<clipPath id="clip0_12002_41">
<rect width="25" height="25" fill="white" transform="translate(7 8)"/>
</clipPath>
</defs>
</svg>
