<svg width="40" height="40" viewBox="0 0 40 40" fill="none" xmlns="http://www.w3.org/2000/svg">
<rect x="0.5" y="0.5" width="39" height="39" rx="19.5" fill="#F0FFFF"/>
<rect x="0.5" y="0.5" width="39" height="39" rx="19.5" stroke="#5FBF8D"/>
<g clip-path="url(#clip0_12012_188)">
<path d="M26.8987 11.0688C24.9295 9.09115 22.306 8.00197 19.5114 8.00197H19.4994C13.872 7.88679 8.93509 12.8426 9.05095 18.4679C9.19825 22.44 13.0195 27.4846 15.9953 31.3601C16.8692 32.4041 18.1426 33 19.5105 33C20.9265 33 22.2411 32.362 23.1173 31.2495C25.3249 28.5063 30.0917 21.9081 29.9478 18.4678C29.9479 15.6713 28.865 13.0436 26.8987 11.0688ZM21.5831 30.0411C20.574 31.3722 18.4511 31.3746 17.4416 30.0434C13.4066 24.9054 11.0038 20.6265 11.0038 18.4679C11.0038 13.7738 14.8149 9.95501 19.4994 9.95501H19.5114C24.1892 9.95501 27.9949 13.7739 27.9949 18.4679C27.9949 20.65 25.6579 24.8683 21.5831 30.0411Z" fill="#5FBF8D"/>
<path d="M19.5971 22.6003C17.3088 22.6003 15.447 20.7386 15.447 18.4502C15.447 16.1618 17.3088 14.3001 19.5971 14.3001C21.8855 14.3001 23.7472 16.1618 23.7472 18.4502C23.7472 20.7386 21.8855 22.6003 19.5971 22.6003ZM19.5971 16.2531C18.3856 16.2531 17.4 17.2387 17.4 18.4502C17.4 19.6617 18.3856 20.6473 19.5971 20.6473C20.8086 20.6473 21.7942 19.6617 21.7942 18.4502C21.7942 17.2387 20.8087 16.2531 19.5971 16.2531Z" fill="#DBE120"/>
</g>
<defs>
<clipPath id="clip0_12012_188">
<rect width="25" height="25" fill="white" transform="translate(7 8)"/>
</clipPath>
</defs>
</svg>
