<svg width="60" height="60" viewBox="0 0 60 60" fill="none" xmlns="http://www.w3.org/2000/svg">
<rect x="0.5" y="0.5" width="59" height="59" rx="29.5" fill="#F0FFFF"/>
<rect x="0.5" y="0.5" width="59" height="59" rx="29.5" stroke="#5FBF8D"/>
<path d="M25.7812 21.8438C25.7812 20.2905 24.522 19.0312 22.9688 19.0312C21.4155 19.0312 20.1562 20.2905 20.1562 21.8438V27.2622M30.6128 46.4033C31.3391 46.5303 32.0751 46.5941 32.8125 46.5938C39.8023 46.5938 45.4688 40.9273 45.4688 33.9375V31.125C45.4688 29.5717 44.2095 28.3125 42.6562 28.3125M42.6562 28.3125C41.103 28.3125 39.8438 29.5717 39.8438 31.125V35.3438M42.6562 28.3125V19.0312C42.6562 17.478 41.397 16.2188 39.8438 16.2188C38.2905 16.2188 37.0312 17.478 37.0312 19.0312M25.7812 24.0938V19.0312C25.7812 17.478 27.0405 16.2188 28.5938 16.2188C30.147 16.2188 31.4062 17.478 31.4062 19.0312M31.4062 24.0938V16.2188C31.4062 14.6655 32.6655 13.4062 34.2188 13.4062C35.772 13.4062 37.0312 14.6655 37.0312 16.2188V24.0938" stroke="#5FBF8D" stroke-width="2.8125" stroke-miterlimit="10" stroke-linecap="round" stroke-linejoin="round"/>
<path d="M22.9688 43.7812C26.0754 43.7812 28.5938 41.2629 28.5938 38.1562C28.5938 35.0496 26.0754 32.5312 22.9688 32.5312C19.8621 32.5312 17.3438 35.0496 17.3438 38.1562C17.3438 41.2629 19.8621 43.7812 22.9688 43.7812Z" stroke="#DBE120" stroke-width="2.8125" stroke-miterlimit="10" stroke-linecap="round" stroke-linejoin="round"/>
<path d="M18.9912 42.1337L14.5312 46.5937" stroke="#DBE120" stroke-width="2.8125" stroke-miterlimit="10" stroke-linecap="round" stroke-linejoin="round"/>
</svg>
