<svg width="60" height="60" viewBox="0 0 60 60" fill="none" xmlns="http://www.w3.org/2000/svg">
<rect x="0.5" y="0.5" width="59" height="59" rx="29.5" fill="#F0FFFF"/>
<rect x="0.5" y="0.5" width="59" height="59" rx="29.5" stroke="#5FBF8D"/>
<g clip-path="url(#clip0_12036_1762)">
<path d="M46.5938 45.1691H41.0391V41.2316C41.0391 38.5177 38.8311 36.3098 36.1172 36.3098C33.4033 36.3098 31.1953 38.5177 31.1953 41.2316V45.1691H13.4062C12.6296 45.1691 12 45.7987 12 46.5754C12 47.3521 12.6296 47.9816 13.4062 47.9816H46.5938C47.3704 47.9816 48 47.3521 48 46.5754C48 45.7987 47.3704 45.1691 46.5938 45.1691ZM34.0078 41.2316C34.0078 40.0685 34.9541 39.1223 36.1172 39.1223C37.2803 39.1223 38.2266 40.0685 38.2266 41.2316V45.1691H34.0078V41.2316ZM22.4724 35.869L24.6257 36.6672C25.1008 36.8434 25.594 36.931 26.0861 36.931C26.6823 36.931 27.2769 36.8022 27.8349 36.5459C28.8533 36.0782 29.6288 35.2418 30.0198 34.1862L33.7259 24.0754H37.4531C41.7179 24.0754 45.1875 27.5451 45.1875 31.8098C45.1875 33.7854 44.443 35.6658 43.091 37.1047C42.5592 37.6707 42.5869 38.5607 43.1529 39.0925C43.4133 39.3379 43.7577 39.4744 44.1155 39.474C44.3076 39.4742 44.4978 39.435 44.6741 39.3588C44.8504 39.2825 45.0092 39.1708 45.1406 39.0306C46.9845 37.0681 48 34.5038 48 31.8098C48 25.9942 43.2687 21.2629 37.4531 21.2629H34.6661C34.8529 20.2038 34.7161 19.1145 34.2579 18.1164C33.8594 17.2485 33.2499 16.5202 32.4898 15.9839L33.2572 13.9136C33.5271 13.1854 33.1556 12.3762 32.4273 12.1063C31.699 11.8364 30.8899 12.208 30.62 12.9361L29.8468 15.0221C27.5164 14.8283 25.2423 16.1924 24.3891 18.4937L19.9964 30.4775C19.1929 32.6465 20.3036 35.0651 22.4724 35.869ZM22.6355 31.45L27.0281 19.4665C27.5133 18.1577 28.9729 17.4877 30.2814 17.9727C30.9154 18.2077 31.4198 18.6756 31.702 19.29C31.9841 19.9044 32.01 20.592 31.7733 21.2307L27.3809 33.2137C27.2525 33.5601 26.9969 33.8359 26.6611 33.9901C26.3254 34.1443 25.9497 34.1585 25.6032 34.0301L23.45 33.2319C22.735 32.9668 22.3689 32.1696 22.6355 31.45Z" fill="#5FBF8D"/>
<path d="M27.0469 42.3564H16.2188C15.4421 42.3564 14.8125 41.7269 14.8125 40.9502C14.8125 40.1735 15.4421 39.5439 16.2188 39.5439H27.0469C27.8235 39.5439 28.4531 40.1735 28.4531 40.9502C28.4531 41.7269 27.8235 42.3564 27.0469 42.3564Z" fill="#DBE120"/>
</g>
<defs>
<clipPath id="clip0_12036_1762">
<rect width="36" height="36" fill="white" transform="translate(12 12)"/>
</clipPath>
</defs>
</svg>
