<svg width="60" height="60" viewBox="0 0 60 60" fill="none" xmlns="http://www.w3.org/2000/svg">
<rect x="0.5" y="0.5" width="59" height="59" rx="29.5" fill="#F0FFFF"/>
<rect x="0.5" y="0.5" width="59" height="59" rx="29.5" stroke="#5FBF8D"/>
<g clip-path="url(#clip0_12036_1764)">
<path d="M34.8713 36.8203C33.1445 33.38 30.711 30.4347 27.5765 27.9805M38.058 30.7575C38.7398 31.8673 38.572 33.3007 37.6519 34.2221L35.2171 36.66C33.5877 38.2915 31.9816 38.6042 29.8461 38.6183C28.4512 38.6275 27.1175 39.1933 26.1312 40.1809L21.0356 45.283C19.2902 47.0307 16.4605 47.0307 14.7152 45.283C12.9699 43.5355 12.9699 40.7021 14.7152 38.9545L19.8108 33.8524C20.7971 32.8648 21.3621 31.5294 21.3714 30.1327C21.3855 27.9944 22.207 25.8605 23.8364 24.2289L25.711 22.3362C26.6359 21.4101 28.0802 21.2402 29.1862 21.9394C32.9458 24.3161 35.9054 27.2538 38.058 30.7575Z" stroke="#5FBF8D" stroke-width="2.8125" stroke-miterlimit="10" stroke-linecap="round" stroke-linejoin="round"/>
<path d="M22.3359 37.7344L20.1211 39.9492M40.9345 25.1484C39.2836 22.8747 37.2553 20.8658 34.8516 19.1201M46.5938 24.2344C43.9665 19.932 40.3543 16.3246 35.7656 13.4062" stroke="#DBE120" stroke-width="2.8125" stroke-miterlimit="10" stroke-linecap="round" stroke-linejoin="round"/>
</g>
<defs>
<clipPath id="clip0_12036_1764">
<rect width="36" height="36" fill="white" transform="translate(12 12)"/>
</clipPath>
</defs>
</svg>
